<svg xmlns="http://www.w3.org/2000/svg" xmlns:xlink="http://www.w3.org/1999/xlink" width="500" zoomAndPan="magnify" viewBox="0 0 375 374.999991" height="500" preserveAspectRatio="xMidYMid meet" version="1.0"><defs><clipPath id="0d6d0f965c"><path d="M 2 9.457031 L 371 9.457031 L 371 133 L 2 133 Z M 2 9.457031 " clip-rule="nonzero"/></clipPath><clipPath id="957d6804b1"><path d="M 42 67 L 331 67 L 331 365.707031 L 42 365.707031 Z M 42 67 " clip-rule="nonzero"/></clipPath></defs><g clip-path="url(#0d6d0f965c)"><path fill="#000000" d="M 357.796875 90.847656 L 188.5 10.097656 C 187.832031 9.777344 187.125 9.617188 186.382812 9.617188 C 185.636719 9.617188 184.933594 9.777344 184.261719 10.097656 L 14.984375 90.847656 C 14.339844 91.15625 13.710938 91.496094 13.097656 91.863281 C 12.484375 92.234375 11.890625 92.632812 11.320312 93.058594 C 10.746094 93.488281 10.195312 93.941406 9.664062 94.425781 C 9.136719 94.90625 8.632812 95.414062 8.152344 95.945312 C 7.675781 96.476562 7.222656 97.027344 6.796875 97.605469 C 6.375 98.179688 5.980469 98.777344 5.613281 99.390625 C 5.246094 100.003906 4.910156 100.636719 4.609375 101.285156 C 4.304688 101.933594 4.03125 102.59375 3.792969 103.265625 C 3.554688 103.941406 3.347656 104.625 3.175781 105.320312 C 3.003906 106.015625 2.867188 106.714844 2.765625 107.425781 C 2.660156 108.132812 2.59375 108.84375 2.558594 109.558594 C 2.527344 110.273438 2.53125 110.988281 2.566406 111.703125 C 2.605469 112.417969 2.675781 113.128906 2.78125 113.835938 C 2.890625 114.542969 3.03125 115.242188 3.207031 115.9375 C 3.382812 116.628906 3.59375 117.3125 3.835938 117.988281 C 4.078125 118.660156 4.355469 119.320312 4.664062 119.964844 C 4.96875 120.609375 5.308594 121.238281 5.679688 121.851562 C 6.046875 122.464844 6.449219 123.058594 6.875 123.632812 C 7.304688 124.203125 7.757812 124.753906 8.242188 125.285156 C 8.722656 125.8125 9.230469 126.316406 9.761719 126.792969 C 10.292969 127.273438 10.847656 127.726562 11.421875 128.148438 C 12 128.574219 12.59375 128.96875 13.207031 129.335938 C 13.824219 129.699219 14.453125 130.035156 15.101562 130.339844 C 15.75 130.640625 16.410156 130.914062 17.085938 131.152344 C 17.757812 131.390625 18.445312 131.59375 19.136719 131.765625 C 19.832031 131.9375 20.535156 132.074219 21.242188 132.175781 C 21.949219 132.277344 22.660156 132.347656 23.375 132.378906 C 24.089844 132.410156 24.804688 132.410156 25.519531 132.371094 C 26.234375 132.332031 26.941406 132.261719 27.648438 132.152344 C 28.359375 132.042969 29.058594 131.902344 29.75 131.726562 C 30.445312 131.550781 31.125 131.339844 31.800781 131.09375 C 32.472656 130.851562 33.128906 130.574219 33.777344 130.265625 L 186.382812 57.464844 L 339.007812 130.269531 C 339.652344 130.570312 340.3125 130.839844 340.984375 131.078125 C 341.652344 131.316406 342.335938 131.523438 343.027344 131.695312 C 343.71875 131.867188 344.414062 132.003906 345.121094 132.105469 C 345.824219 132.210938 346.53125 132.28125 347.242188 132.3125 C 347.953125 132.347656 348.667969 132.347656 349.378906 132.3125 C 350.089844 132.277344 350.796875 132.207031 351.5 132.101562 C 352.207031 131.996094 352.902344 131.855469 353.59375 131.683594 C 354.285156 131.507812 354.964844 131.304688 355.636719 131.0625 C 356.304688 130.824219 356.964844 130.550781 357.609375 130.246094 C 358.25 129.941406 358.878906 129.609375 359.492188 129.242188 C 360.101562 128.875 360.695312 128.480469 361.265625 128.058594 C 361.839844 127.632812 362.390625 127.183594 362.917969 126.707031 C 363.445312 126.230469 363.949219 125.726562 364.429688 125.199219 C 364.910156 124.671875 365.359375 124.125 365.785156 123.550781 C 366.210938 122.980469 366.609375 122.390625 366.976562 121.78125 C 367.34375 121.171875 367.683594 120.542969 367.988281 119.902344 C 368.296875 119.257812 368.570312 118.601562 368.8125 117.929688 C 369.054688 117.261719 369.261719 116.582031 369.4375 115.890625 C 369.613281 115.199219 369.757812 114.503906 369.863281 113.800781 C 369.972656 113.09375 370.042969 112.386719 370.082031 111.675781 C 370.121094 110.964844 370.125 110.253906 370.09375 109.539062 C 370.0625 108.828125 369.996094 108.121094 369.894531 107.414062 C 369.792969 106.710938 369.660156 106.011719 369.488281 105.320312 C 369.320312 104.628906 369.117188 103.945312 368.882812 103.273438 C 368.648438 102.601562 368.378906 101.941406 368.078125 101.296875 C 367.777344 100.648438 367.445312 100.019531 367.085938 99.40625 C 366.722656 98.792969 366.332031 98.199219 365.914062 97.621094 C 365.492188 97.046875 365.046875 96.496094 364.570312 95.960938 C 364.097656 95.429688 363.597656 94.925781 363.074219 94.441406 C 362.550781 93.957031 362.003906 93.503906 361.433594 93.074219 C 360.867188 92.644531 360.277344 92.246094 359.671875 91.871094 C 359.0625 91.5 358.4375 91.160156 357.796875 90.847656 Z M 357.796875 90.847656 " fill-opacity="1" fill-rule="nonzero"/></g><path fill="#000000" d="M 309.074219 10.386719 L 274.851562 10.386719 C 274.527344 10.386719 274.207031 10.417969 273.890625 10.484375 C 273.574219 10.546875 273.265625 10.640625 272.96875 10.761719 C 272.667969 10.886719 272.382812 11.039062 272.117188 11.21875 C 271.847656 11.398438 271.597656 11.601562 271.371094 11.832031 C 271.140625 12.058594 270.9375 12.308594 270.757812 12.578125 C 270.578125 12.847656 270.425781 13.128906 270.300781 13.429688 C 270.179688 13.726562 270.085938 14.035156 270.023438 14.351562 C 269.957031 14.671875 269.925781 14.992188 269.925781 15.3125 L 269.925781 56.742188 C 269.925781 57.207031 269.992188 57.664062 270.121094 58.109375 C 270.25 58.558594 270.4375 58.976562 270.6875 59.371094 C 270.933594 59.765625 271.234375 60.117188 271.582031 60.425781 C 271.929688 60.734375 272.3125 60.988281 272.730469 61.1875 L 306.957031 77.511719 C 307.144531 77.601562 307.335938 77.679688 307.53125 77.742188 C 307.730469 77.808594 307.929688 77.859375 308.132812 77.902344 C 308.335938 77.941406 308.539062 77.96875 308.746094 77.980469 C 308.953125 77.996094 309.160156 77.996094 309.367188 77.984375 C 309.574219 77.972656 309.777344 77.945312 309.980469 77.90625 C 310.183594 77.871094 310.386719 77.820312 310.582031 77.753906 C 310.78125 77.691406 310.972656 77.617188 311.160156 77.527344 C 311.347656 77.441406 311.527344 77.34375 311.703125 77.230469 C 311.878906 77.121094 312.046875 77 312.207031 76.867188 C 312.367188 76.738281 312.515625 76.59375 312.660156 76.445312 C 312.800781 76.292969 312.933594 76.136719 313.054688 75.96875 C 313.175781 75.800781 313.289062 75.625 313.386719 75.445312 C 313.488281 75.261719 313.578125 75.078125 313.652344 74.882812 C 313.730469 74.691406 313.792969 74.496094 313.84375 74.292969 C 313.898438 74.09375 313.933594 73.890625 313.960938 73.683594 C 313.988281 73.480469 314 73.273438 314 73.066406 L 314 15.3125 C 314 14.992188 313.96875 14.671875 313.90625 14.351562 C 313.84375 14.035156 313.75 13.726562 313.625 13.429688 C 313.5 13.128906 313.351562 12.847656 313.171875 12.578125 C 312.992188 12.308594 312.785156 12.058594 312.558594 11.832031 C 312.328125 11.601562 312.082031 11.398438 311.8125 11.21875 C 311.542969 11.039062 311.257812 10.886719 310.960938 10.761719 C 310.660156 10.640625 310.355469 10.546875 310.035156 10.484375 C 309.71875 10.417969 309.398438 10.386719 309.074219 10.386719 Z M 309.074219 10.386719 " fill-opacity="1" fill-rule="nonzero"/><path fill="#000000" d="M 101.921875 262.253906 L 101.921875 250.726562 L 81.085938 250.726562 L 81.085938 262.253906 Z M 101.921875 262.253906 " fill-opacity="1" fill-rule="nonzero"/><path fill="#000000" d="M 137.277344 262.253906 L 181.75 262.253906 L 181.75 250.726562 L 137.277344 250.726562 Z M 137.277344 262.253906 " fill-opacity="1" fill-rule="nonzero"/><path fill="#000000" d="M 119.601562 288.726562 C 118.484375 288.726562 117.378906 288.621094 116.285156 288.410156 C 115.1875 288.199219 114.121094 287.886719 113.085938 287.476562 C 112.046875 287.0625 111.058594 286.558594 110.117188 285.957031 C 109.179688 285.359375 108.300781 284.675781 107.488281 283.910156 C 106.675781 283.148438 105.945312 282.3125 105.289062 281.410156 C 104.636719 280.503906 104.070312 279.546875 103.597656 278.539062 C 103.125 277.527344 102.75 276.480469 102.472656 275.398438 C 102.199219 274.320312 102.023438 273.222656 101.957031 272.105469 L 93.097656 272.105469 L 101.074219 338.007812 L 161.761719 338.007812 L 169.742188 272.105469 L 137.242188 272.105469 C 137.175781 273.21875 137.003906 274.316406 136.726562 275.398438 C 136.449219 276.480469 136.078125 277.527344 135.601562 278.535156 C 135.128906 279.546875 134.566406 280.503906 133.910156 281.40625 C 133.257812 282.3125 132.523438 283.144531 131.710938 283.910156 C 130.898438 284.675781 130.023438 285.359375 129.082031 285.957031 C 128.140625 286.558594 127.152344 287.0625 126.113281 287.476562 C 125.078125 287.886719 124.011719 288.199219 122.917969 288.410156 C 121.820312 288.621094 120.714844 288.726562 119.601562 288.726562 Z M 119.601562 288.726562 " fill-opacity="1" fill-rule="nonzero"/><path fill="#000000" d="M 119.601562 278.875 C 120.113281 278.875 120.621094 278.824219 121.125 278.722656 C 121.628906 278.621094 122.121094 278.472656 122.59375 278.277344 C 123.070312 278.078125 123.519531 277.835938 123.949219 277.550781 C 124.375 277.265625 124.769531 276.941406 125.132812 276.578125 C 125.496094 276.214844 125.820312 275.820312 126.105469 275.390625 C 126.390625 274.964844 126.632812 274.511719 126.832031 274.039062 C 127.027344 273.5625 127.175781 273.074219 127.277344 272.570312 C 127.378906 272.066406 127.429688 271.554688 127.429688 271.042969 L 127.429688 250.726562 L 111.769531 250.726562 L 111.769531 271.042969 C 111.773438 271.554688 111.820312 272.066406 111.921875 272.570312 C 112.023438 273.074219 112.171875 273.5625 112.371094 274.039062 C 112.566406 274.511719 112.808594 274.964844 113.09375 275.390625 C 113.378906 275.820312 113.703125 276.214844 114.066406 276.578125 C 114.429688 276.941406 114.824219 277.265625 115.253906 277.550781 C 115.679688 277.835938 116.128906 278.078125 116.605469 278.277344 C 117.078125 278.472656 117.570312 278.621094 118.074219 278.722656 C 118.578125 278.824219 119.085938 278.875 119.601562 278.875 Z M 119.601562 278.875 " fill-opacity="1" fill-rule="nonzero"/><g clip-path="url(#957d6804b1)"><path fill="#000000" d="M 327.6875 134.566406 L 188.5 68.175781 C 187.832031 67.855469 187.125 67.699219 186.382812 67.699219 C 185.636719 67.699219 184.933594 67.855469 184.261719 68.175781 L 45.097656 134.5625 C 44.679688 134.765625 44.296875 135.019531 43.949219 135.328125 C 43.601562 135.636719 43.300781 135.988281 43.054688 136.382812 C 42.804688 136.777344 42.617188 137.195312 42.488281 137.644531 C 42.359375 138.089844 42.292969 138.546875 42.292969 139.011719 L 42.292969 360.78125 C 42.292969 361.105469 42.324219 361.425781 42.386719 361.742188 C 42.453125 362.058594 42.542969 362.367188 42.667969 362.667969 C 42.792969 362.964844 42.945312 363.25 43.125 363.519531 C 43.304688 363.789062 43.507812 364.035156 43.734375 364.265625 C 43.964844 364.492188 44.214844 364.699219 44.480469 364.878906 C 44.75 365.058594 45.035156 365.210938 45.332031 365.332031 C 45.632812 365.457031 45.941406 365.550781 46.257812 365.613281 C 46.574219 365.675781 46.894531 365.707031 47.21875 365.707031 L 325.566406 365.707031 C 325.890625 365.707031 326.210938 365.675781 326.527344 365.613281 C 326.84375 365.550781 327.152344 365.457031 327.453125 365.332031 C 327.75 365.210938 328.035156 365.058594 328.304688 364.878906 C 328.570312 364.699219 328.820312 364.492188 329.050781 364.265625 C 329.277344 364.035156 329.480469 363.789062 329.660156 363.519531 C 329.839844 363.25 329.992188 362.964844 330.117188 362.667969 C 330.242188 362.367188 330.332031 362.058594 330.398438 361.742188 C 330.460938 361.425781 330.492188 361.105469 330.492188 360.78125 L 330.492188 139.011719 C 330.492188 138.546875 330.425781 138.09375 330.296875 137.644531 C 330.167969 137.199219 329.980469 136.777344 329.730469 136.382812 C 329.484375 135.992188 329.183594 135.640625 328.835938 135.332031 C 328.488281 135.023438 328.105469 134.765625 327.6875 134.566406 Z M 191.601562 267.179688 C 191.601562 267.503906 191.570312 267.824219 191.507812 268.140625 C 191.441406 268.457031 191.347656 268.765625 191.226562 269.066406 C 191.101562 269.363281 190.949219 269.648438 190.769531 269.917969 C 190.589844 270.1875 190.386719 270.433594 190.160156 270.664062 C 189.929688 270.890625 189.679688 271.097656 189.410156 271.277344 C 189.144531 271.457031 188.859375 271.605469 188.558594 271.730469 C 188.261719 271.855469 187.953125 271.949219 187.636719 272.011719 C 187.320312 272.074219 187 272.105469 186.675781 272.105469 L 179.660156 272.105469 L 171.015625 343.523438 C 170.941406 344.121094 170.765625 344.6875 170.488281 345.222656 C 170.207031 345.753906 169.84375 346.21875 169.390625 346.621094 C 168.941406 347.019531 168.433594 347.324219 167.871094 347.539062 C 167.308594 347.753906 166.726562 347.859375 166.125 347.859375 L 96.710938 347.859375 C 96.109375 347.859375 95.527344 347.753906 94.964844 347.539062 C 94.398438 347.324219 93.894531 347.019531 93.441406 346.621094 C 92.992188 346.21875 92.628906 345.753906 92.347656 345.222656 C 92.070312 344.6875 91.894531 344.121094 91.820312 343.523438 L 83.175781 272.105469 L 76.160156 272.105469 C 75.835938 272.105469 75.515625 272.074219 75.199219 272.011719 C 74.882812 271.949219 74.574219 271.855469 74.273438 271.730469 C 73.976562 271.605469 73.691406 271.457031 73.421875 271.277344 C 73.15625 271.097656 72.90625 270.890625 72.675781 270.664062 C 72.449219 270.433594 72.246094 270.1875 72.066406 269.917969 C 71.886719 269.648438 71.734375 269.363281 71.609375 269.066406 C 71.484375 268.765625 71.394531 268.457031 71.328125 268.140625 C 71.265625 267.824219 71.234375 267.503906 71.234375 267.179688 L 71.234375 245.796875 C 71.234375 245.476562 71.265625 245.15625 71.328125 244.835938 C 71.394531 244.519531 71.484375 244.210938 71.609375 243.914062 C 71.734375 243.613281 71.886719 243.332031 72.066406 243.0625 C 72.246094 242.792969 72.449219 242.542969 72.675781 242.316406 C 72.90625 242.085938 73.15625 241.882812 73.425781 241.703125 C 73.691406 241.523438 73.976562 241.371094 74.273438 241.246094 C 74.574219 241.125 74.882812 241.03125 75.199219 240.96875 C 75.515625 240.902344 75.835938 240.871094 76.160156 240.871094 L 186.675781 240.871094 C 187 240.871094 187.320312 240.902344 187.636719 240.96875 C 187.953125 241.03125 188.261719 241.125 188.558594 241.246094 C 188.859375 241.371094 189.144531 241.523438 189.410156 241.703125 C 189.679688 241.882812 189.929688 242.085938 190.160156 242.316406 C 190.386719 242.542969 190.589844 242.792969 190.769531 243.0625 C 190.949219 243.332031 191.101562 243.613281 191.226562 243.914062 C 191.347656 244.210938 191.441406 244.519531 191.507812 244.835938 C 191.570312 245.15625 191.601562 245.476562 191.601562 245.796875 Z M 297.242188 346.25 C 296.777344 346.753906 296.226562 347.144531 295.597656 347.421875 C 294.96875 347.695312 294.308594 347.835938 293.621094 347.835938 L 206.519531 347.835938 C 206.179688 347.835938 205.84375 347.800781 205.511719 347.730469 C 205.179688 347.660156 204.855469 347.558594 204.546875 347.421875 C 204.234375 347.285156 203.941406 347.117188 203.664062 346.917969 C 203.386719 346.722656 203.132812 346.5 202.902344 346.25 C 202.671875 346 202.46875 345.726562 202.292969 345.4375 C 202.121094 345.144531 201.976562 344.835938 201.867188 344.515625 C 201.753906 344.195312 201.679688 343.863281 201.636719 343.527344 C 201.59375 343.1875 201.585938 342.851562 201.613281 342.511719 L 205.601562 293.082031 L 205.601562 293.074219 L 205.828125 290.265625 C 205.902344 289.371094 206.011719 288.480469 206.160156 287.59375 C 206.308594 286.707031 206.496094 285.828125 206.71875 284.957031 C 206.941406 284.089844 207.203125 283.230469 207.5 282.382812 C 207.796875 281.535156 208.128906 280.703125 208.5 279.882812 C 208.867188 279.0625 209.273438 278.261719 209.710938 277.476562 C 210.148438 276.691406 210.617188 275.929688 211.121094 275.183594 C 211.625 274.441406 212.15625 273.71875 212.722656 273.019531 C 213.285156 272.320312 213.878906 271.648438 214.503906 271 C 215.125 270.355469 215.773438 269.734375 216.449219 269.144531 C 217.125 268.550781 217.828125 267.988281 218.550781 267.457031 C 219.273438 266.925781 220.019531 266.425781 220.785156 265.957031 C 221.554688 265.492188 222.339844 265.058594 223.140625 264.65625 C 223.945312 264.257812 224.765625 263.890625 225.601562 263.5625 C 226.4375 263.230469 227.285156 262.9375 228.144531 262.679688 C 229.003906 262.421875 229.875 262.203125 230.753906 262.019531 C 231.632812 261.835938 232.519531 261.691406 233.410156 261.585938 L 233.410156 149.484375 C 233.40625 148.9375 233.433594 148.390625 233.484375 147.847656 C 233.535156 147.300781 233.613281 146.761719 233.71875 146.222656 C 233.820312 145.6875 233.953125 145.15625 234.109375 144.628906 C 234.265625 144.105469 234.449219 143.589844 234.65625 143.085938 C 234.863281 142.578125 235.097656 142.082031 235.351562 141.597656 C 235.609375 141.117188 235.890625 140.644531 236.191406 140.1875 C 236.496094 139.734375 236.820312 139.292969 237.164062 138.867188 C 237.511719 138.445312 237.878906 138.039062 238.261719 137.652344 C 238.648438 137.261719 239.054688 136.894531 239.476562 136.546875 C 239.898438 136.199219 240.335938 135.871094 240.792969 135.566406 C 241.246094 135.261719 241.714844 134.980469 242.195312 134.722656 C 242.679688 134.460938 243.171875 134.226562 243.679688 134.019531 C 244.183594 133.808594 244.699219 133.625 245.222656 133.464844 C 245.746094 133.304688 246.273438 133.171875 246.8125 133.0625 C 247.347656 132.957031 247.890625 132.875 248.433594 132.824219 C 248.976562 132.769531 249.523438 132.742188 250.070312 132.742188 C 250.617188 132.742188 251.164062 132.769531 251.710938 132.824219 C 252.253906 132.875 252.792969 132.957031 253.332031 133.0625 C 253.867188 133.171875 254.398438 133.304688 254.921875 133.464844 C 255.445312 133.625 255.960938 133.808594 256.464844 134.019531 C 256.972656 134.226562 257.464844 134.460938 257.945312 134.722656 C 258.429688 134.980469 258.898438 135.261719 259.351562 135.566406 C 259.808594 135.871094 260.246094 136.199219 260.667969 136.546875 C 261.089844 136.894531 261.492188 137.261719 261.878906 137.652344 C 262.265625 138.039062 262.632812 138.445312 262.976562 138.867188 C 263.324219 139.292969 263.648438 139.734375 263.953125 140.1875 C 264.253906 140.644531 264.535156 141.117188 264.789062 141.597656 C 265.046875 142.082031 265.277344 142.578125 265.488281 143.085938 C 265.695312 143.589844 265.875 144.105469 266.035156 144.628906 C 266.191406 145.15625 266.320312 145.6875 266.425781 146.222656 C 266.53125 146.761719 266.609375 147.300781 266.660156 147.847656 C 266.710938 148.390625 266.734375 148.9375 266.734375 149.484375 L 266.734375 261.585938 C 267.625 261.691406 268.511719 261.835938 269.390625 262.019531 C 270.269531 262.203125 271.140625 262.421875 272 262.679688 C 272.859375 262.9375 273.707031 263.230469 274.542969 263.558594 C 275.378906 263.890625 276.199219 264.253906 277 264.65625 C 277.804688 265.054688 278.589844 265.488281 279.355469 265.957031 C 280.125 266.425781 280.871094 266.925781 281.59375 267.457031 C 282.316406 267.988281 283.015625 268.550781 283.691406 269.140625 C 284.367188 269.734375 285.015625 270.351562 285.640625 271 C 286.261719 271.648438 286.855469 272.320312 287.421875 273.019531 C 287.988281 273.71875 288.519531 274.4375 289.023438 275.183594 C 289.527344 275.925781 289.996094 276.691406 290.433594 277.476562 C 290.871094 278.261719 291.273438 279.0625 291.644531 279.878906 C 292.011719 280.699219 292.347656 281.535156 292.644531 282.382812 C 292.941406 283.230469 293.203125 284.085938 293.425781 284.957031 C 293.648438 285.828125 293.835938 286.707031 293.984375 287.589844 C 294.132812 288.476562 294.242188 289.367188 294.316406 290.261719 L 298.53125 342.511719 C 298.585938 343.195312 298.5 343.863281 298.277344 344.515625 C 298.054688 345.164062 297.707031 345.742188 297.242188 346.25 Z M 297.242188 346.25 " fill-opacity="1" fill-rule="nonzero"/></g><path fill="#000000" d="M 256.882812 261.355469 L 256.882812 149.484375 C 256.886719 149.035156 256.847656 148.589844 256.761719 148.148438 C 256.675781 147.707031 256.550781 147.277344 256.378906 146.863281 C 256.210938 146.445312 256.003906 146.050781 255.753906 145.675781 C 255.507812 145.300781 255.222656 144.953125 254.90625 144.636719 C 254.589844 144.316406 254.246094 144.03125 253.871094 143.78125 C 253.5 143.53125 253.105469 143.316406 252.691406 143.144531 C 252.277344 142.972656 251.847656 142.839844 251.40625 142.753906 C 250.96875 142.664062 250.523438 142.621094 250.074219 142.621094 C 249.621094 142.621094 249.179688 142.664062 248.738281 142.753906 C 248.296875 142.839844 247.867188 142.972656 247.453125 143.144531 C 247.039062 143.316406 246.644531 143.53125 246.273438 143.78125 C 245.898438 144.03125 245.554688 144.316406 245.238281 144.636719 C 244.921875 144.953125 244.640625 145.300781 244.390625 145.675781 C 244.144531 146.050781 243.933594 146.445312 243.765625 146.863281 C 243.59375 147.277344 243.46875 147.707031 243.382812 148.148438 C 243.296875 148.589844 243.257812 149.035156 243.261719 149.484375 L 243.261719 261.355469 Z M 256.882812 261.355469 " fill-opacity="1" fill-rule="nonzero"/><path fill="#000000" d="M 215.054688 298.398438 L 211.859375 337.984375 L 288.285156 337.984375 L 285.089844 298.398438 Z M 215.054688 298.398438 " fill-opacity="1" fill-rule="nonzero"/><path fill="#000000" d="M 284.082031 288.253906 C 284.058594 288.140625 284.03125 288.027344 284.007812 287.914062 C 283.960938 287.707031 283.90625 287.507812 283.855469 287.304688 C 283.828125 287.203125 283.804688 287.101562 283.777344 287 C 283.707031 286.746094 283.628906 286.492188 283.546875 286.238281 C 283.535156 286.195312 283.523438 286.152344 283.507812 286.105469 C 283.410156 285.8125 283.308594 285.519531 283.199219 285.230469 C 283.167969 285.144531 283.132812 285.058594 283.097656 284.972656 C 283.019531 284.769531 282.941406 284.566406 282.851562 284.367188 C 282.808594 284.261719 282.761719 284.15625 282.710938 284.050781 C 282.632812 283.871094 282.550781 283.691406 282.464844 283.515625 C 282.414062 283.40625 282.363281 283.296875 282.308594 283.1875 C 282.222656 283.011719 282.128906 282.835938 282.039062 282.660156 C 281.984375 282.558594 281.929688 282.457031 281.875 282.359375 C 281.765625 282.164062 281.65625 281.972656 281.542969 281.78125 C 281.496094 281.703125 281.453125 281.628906 281.40625 281.550781 C 281.246094 281.289062 281.082031 281.03125 280.910156 280.773438 C 280.871094 280.714844 280.824219 280.65625 280.785156 280.59375 C 280.652344 280.398438 280.515625 280.203125 280.375 280.011719 C 280.304688 279.921875 280.238281 279.832031 280.167969 279.742188 C 280.046875 279.582031 279.925781 279.425781 279.800781 279.269531 C 279.722656 279.175781 279.644531 279.078125 279.566406 278.988281 C 279.441406 278.835938 279.316406 278.6875 279.183594 278.542969 C 279.105469 278.453125 279.023438 278.359375 278.945312 278.269531 C 278.804688 278.117188 278.660156 277.964844 278.515625 277.8125 C 278.441406 277.738281 278.367188 277.660156 278.292969 277.585938 C 278.082031 277.371094 277.863281 277.160156 277.640625 276.953125 L 277.617188 276.929688 C 275.625 275.085938 273.367188 273.671875 270.839844 272.683594 C 268.3125 271.695312 265.695312 271.203125 262.984375 271.207031 L 237.152344 271.207031 C 234.441406 271.203125 231.820312 271.695312 229.296875 272.683594 C 226.769531 273.671875 224.511719 275.085938 222.519531 276.929688 L 222.496094 276.953125 C 222.273438 277.15625 222.054688 277.367188 221.84375 277.585938 C 221.769531 277.660156 221.695312 277.738281 221.621094 277.8125 C 221.476562 277.964844 221.332031 278.117188 221.191406 278.269531 C 221.109375 278.359375 221.03125 278.449219 220.953125 278.542969 C 220.820312 278.6875 220.695312 278.835938 220.570312 278.988281 C 220.492188 279.082031 220.414062 279.175781 220.335938 279.269531 C 220.210938 279.425781 220.089844 279.582031 219.96875 279.742188 C 219.898438 279.832031 219.828125 279.921875 219.761719 280.011719 C 219.621094 280.207031 219.484375 280.398438 219.347656 280.597656 C 219.308594 280.65625 219.265625 280.714844 219.226562 280.773438 C 219.054688 281.03125 218.886719 281.289062 218.726562 281.550781 C 218.683594 281.625 218.640625 281.703125 218.59375 281.777344 C 218.480469 281.96875 218.367188 282.160156 218.261719 282.359375 C 218.207031 282.457031 218.152344 282.558594 218.097656 282.660156 C 218.003906 282.835938 217.914062 283.011719 217.828125 283.1875 C 217.773438 283.296875 217.722656 283.402344 217.667969 283.511719 C 217.585938 283.691406 217.503906 283.867188 217.421875 284.046875 C 217.375 284.152344 217.328125 284.257812 217.28125 284.367188 C 217.199219 284.566406 217.117188 284.765625 217.039062 284.96875 C 217.003906 285.054688 216.96875 285.144531 216.9375 285.230469 C 216.828125 285.519531 216.726562 285.8125 216.632812 286.105469 C 216.613281 286.152344 216.601562 286.203125 216.585938 286.253906 C 216.507812 286.5 216.433594 286.746094 216.363281 286.996094 C 216.335938 287.101562 216.308594 287.207031 216.28125 287.3125 C 216.230469 287.511719 216.179688 287.710938 216.132812 287.910156 C 216.105469 288.027344 216.082031 288.144531 216.054688 288.261719 C 216.035156 288.355469 216.015625 288.449219 216 288.546875 L 284.132812 288.546875 C 284.121094 288.449219 284.101562 288.351562 284.082031 288.253906 Z M 284.082031 288.253906 " fill-opacity="1" fill-rule="nonzero"/></svg>